<svg width="20" height="20" viewBox="0 0 20 20" fill="none" xmlns="http://www.w3.org/2000/svg">
<g clip-path="url(#clip0_181_2857)">
<path d="M19.9895 10.1871C19.9895 9.36769 19.9214 8.76975 19.7742 8.14967H10.1992V11.848H15.8195C15.7062 12.7671 15.0943 14.1512 13.7346 15.0813L13.7155 15.2051L16.7429 17.4969L16.9527 17.5174C18.8789 15.7789 19.9895 13.221 19.9895 10.1871Z" fill="#4285F4"/>
<path d="M10.1993 19.9314C12.9527 19.9314 15.2643 19.0455 16.9527 17.5175L13.7346 15.0814C12.8734 15.6683 11.7176 16.0779 10.1993 16.0779C7.50242 16.0779 5.21352 14.3395 4.39759 11.9367L4.27799 11.9466L1.13003 14.3273L1.08887 14.4392C2.76588 17.6946 6.2106 19.9314 10.1993 19.9314Z" fill="#34A853"/>
<path d="M4.39748 11.9367C4.18219 11.3167 4.05759 10.6522 4.05759 9.96574C4.05759 9.27918 4.18219 8.61483 4.38615 7.99475L4.38045 7.86269L1.19304 5.44376L1.08876 5.49223C0.397576 6.84315 0.000976562 8.36017 0.000976562 9.96574C0.000976562 11.5713 0.397576 13.0883 1.08876 14.4392L4.39748 11.9367Z" fill="#FBBC05"/>
<path d="M10.1993 3.85336C12.1142 3.85336 13.406 4.66168 14.1425 5.33718L17.0207 2.59107C15.253 0.985496 12.9527 0 10.1993 0C6.2106 0 2.76588 2.23672 1.08887 5.49214L4.38626 7.99466C5.21352 5.59183 7.50242 3.85336 10.1993 3.85336Z" fill="#EB4335"/>
</g>
<defs>
<clipPath id="clip0_181_2857">
<rect width="20" height="20" fill="white"/>
</clipPath>
</defs>
</svg>
