<svg width="16" height="16" viewBox="0 0 16 16" fill="none" xmlns="http://www.w3.org/2000/svg">
<path fill-rule="evenodd" clip-rule="evenodd" d="M7.99856 2C8.43302 2 8.81783 2.28074 8.95071 2.69434L9.8511 5.5H12.7544C13.1892 5.50008 13.574 5.78125 13.7066 6.19531C13.8389 6.60977 13.6881 7.06228 13.3335 7.31445L11.0054 8.96973L11.9439 11.6719C12.0859 12.0811 11.9482 12.5353 11.6031 12.7969C11.2577 13.0583 10.7827 13.0679 10.4273 12.8203L7.99856 11.1279L5.57083 12.8203C5.21538 13.0678 4.74034 13.0584 4.39505 12.7969C4.05012 12.5353 3.91231 12.0809 4.05423 11.6719L4.99173 8.96973L2.66458 7.31445C2.31024 7.06227 2.15927 6.60965 2.29153 6.19531C2.42402 5.78128 2.80896 5.50017 3.24368 5.5H6.147L7.04641 2.69434L7.10794 2.5459C7.27635 2.21516 7.61859 2.0003 7.99856 2ZM6.87649 6.5H3.24368L6.18216 8.58984L4.99954 12L7.99856 9.91016L10.9995 12L9.81497 8.58984L12.7544 6.5H9.12161L7.99856 3L6.87649 6.5Z" fill="black" fill-opacity="0.5"/>
</svg>
