<svg width="16" height="16" viewBox="0 0 16 16" fill="none" xmlns="http://www.w3.org/2000/svg">
<g clip-path="url(#clip0_2980_22556)">
<path d="M12.6667 2.66659H12V1.33325H10.6667V2.66659H5.33333V1.33325H4V2.66659H3.33333C2.59333 2.66659 2.00667 3.26659 2.00667 3.99992L2 13.3333C2 14.0666 2.59333 14.6666 3.33333 14.6666H12.6667C13.4 14.6666 14 14.0666 14 13.3333V3.99992C14 3.26659 13.4 2.66659 12.6667 2.66659ZM12.6667 13.3333H3.33333V6.66658H12.6667V13.3333ZM6 9.33325H4.66667V7.99992H6V9.33325ZM8.66667 9.33325H7.33333V7.99992H8.66667V9.33325ZM11.3333 9.33325H10V7.99992H11.3333V9.33325ZM6 11.9999H4.66667V10.6666H6V11.9999ZM8.66667 11.9999H7.33333V10.6666H8.66667V11.9999ZM11.3333 11.9999H10V10.6666H11.3333V11.9999Z" fill="#1B1D1F"/>
</g>
<defs>
<clipPath id="clip0_2980_22556">
<rect width="16" height="16" fill="white"/>
</clipPath>
</defs>
</svg>
