<svg width="16" height="16" viewBox="0 0 16 16" fill="none" xmlns="http://www.w3.org/2000/svg">
<path fill-rule="evenodd" clip-rule="evenodd" d="M7.65081 13.6104C7.83776 13.8265 8.16224 13.8265 8.34919 13.6104C9.32338 12.4846 12 9.10847 12 6C12 3.79086 10.2091 2 8 2C5.79086 2 4 3.79086 4 6C4 9.10847 6.67662 12.4846 7.65081 13.6104Z" stroke="#1B1D1F"/>
<path fill-rule="evenodd" clip-rule="evenodd" d="M8.0013 7.33341C8.73768 7.33341 9.33464 6.73646 9.33464 6.00008C9.33464 5.2637 8.73768 4.66675 8.0013 4.66675C7.26492 4.66675 6.66797 5.2637 6.66797 6.00008C6.66797 6.73646 7.26492 7.33341 8.0013 7.33341Z" stroke="#1B1D1F"/>
</svg>
