<svg width="23" height="23" viewBox="0 0 23 23" fill="none" xmlns="http://www.w3.org/2000/svg">
<g clip-path="url(#clip0_833_6958)">
<path d="M19.168 11.5003V21.0837H3.83464V11.5003M11.5013 21.0837V6.70866M11.5013 6.70866H7.1888C6.55339 6.70866 5.944 6.45624 5.49469 6.00694C5.04539 5.55763 4.79297 4.94824 4.79297 4.31283C4.79297 3.67741 5.04539 3.06802 5.49469 2.61872C5.944 2.16941 6.55339 1.91699 7.1888 1.91699C10.543 1.91699 11.5013 6.70866 11.5013 6.70866ZM11.5013 6.70866H15.8138C16.4492 6.70866 17.0586 6.45624 17.5079 6.00694C17.9572 5.55763 18.2096 4.94824 18.2096 4.31283C18.2096 3.67741 17.9572 3.06802 17.5079 2.61872C17.0586 2.16941 16.4492 1.91699 15.8138 1.91699C12.4596 1.91699 11.5013 6.70866 11.5013 6.70866ZM1.91797 6.70866H21.0846V11.5003H1.91797V6.70866Z" stroke="currentColor" stroke-width="2" stroke-linecap="round" stroke-linejoin="round"/>
</g>
<defs>
<clipPath id="clip0_833_6958">
<rect width="23" height="23" fill="white"/>
</clipPath>
</defs>
</svg>
