<svg width="24" height="24" viewBox="0 0 24 24" fill="none" xmlns="http://www.w3.org/2000/svg">
<path fill-rule="evenodd" clip-rule="evenodd" d="M12.5942 1.99375C12.2486 1.71041 11.751 1.71042 11.4054 1.99376L1.34315 10.2436C1.03686 10.4947 0.921432 10.9112 1.05478 11.2842C1.18812 11.6571 1.54146 11.906 1.93753 11.906H3.39473L4.13977 20.0482C4.21338 20.8526 4.88798 21.4683 5.69574 21.4683H9.18769C9.53286 21.4683 9.81268 21.1885 9.81268 20.8433V16.0405C9.81268 14.1655 11.3425 14.1655 11.6876 14.1655H12.3126C12.6578 14.1655 14.1876 14.1655 14.1876 16.0405V20.8433C14.1876 21.1885 14.4674 21.4683 14.8126 21.4683H18.3046C19.1124 21.4683 19.787 20.8526 19.8606 20.0482L20.6056 11.906H22.0625C22.4585 11.906 22.8119 11.6571 22.9452 11.2842C23.0786 10.9112 22.9631 10.4947 22.6568 10.2436L12.5942 1.99375Z" fill="currentColor"/>
</svg>
