<svg width="10" height="20" viewBox="0 0 10 20" fill="none" xmlns="http://www.w3.org/2000/svg">
<path d="M3.925 19.4C3.79167 19.6333 3.60433 19.7123 3.363 19.637C3.121 19.5623 3 19.4 3 19.15V12H1C0.716667 12 0.479 11.904 0.287 11.712C0.0956668 11.5207 0 11.2833 0 11V1C0 0.716667 0.0956668 0.479 0.287 0.287C0.479 0.0956666 0.716667 0 1 0H8.45C8.81667 0 9.1 0.15 9.3 0.45C9.5 0.75 9.525 1.06667 9.375 1.4L6 9H8.25C8.63333 9 8.925 9.16667 9.125 9.5C9.325 9.83333 9.325 10.1667 9.125 10.5L3.925 19.4Z" fill="url(#paint0_linear_1852_18945)"/>
<defs>
<linearGradient id="paint0_linear_1852_18945" x1="4.73571" y1="0" x2="4.73571" y2="19.6646" gradientUnits="userSpaceOnUse">
<stop stop-color="#34B269"/>
<stop offset="1" stop-color="#A2D697"/>
</linearGradient>
</defs>
</svg>
